<svg width="180" height="197" viewBox="0 0 180 197" fill="none" xmlns="http://www.w3.org/2000/svg">
<mask id="mask0_2_168" style="mask-type:luminance" maskUnits="userSpaceOnUse" x="2" y="13" width="177" height="183">
<path d="M2.05078 13.9202H178.301V195.575H2.05078V13.9202Z" fill="white"/>
</mask>
<g mask="url(#mask0_2_168)">
<path fill-rule="evenodd" clip-rule="evenodd" d="M178.291 91.5618C178.291 63.6188 178.291 72.5794 178.291 49.9627C178.291 40.7618 174.717 31.9514 168.369 25.4438C162.012 18.9461 153.389 15.2918 144.404 15.2918C114.316 15.2918 66.0449 15.2918 35.957 15.2918C26.9629 15.2918 18.3496 18.9461 11.9922 25.4438C5.64453 31.9514 2.07031 40.7618 2.07031 49.9627C2.07031 80.739 2.07031 130.117 2.07031 160.904C2.07031 170.094 5.64453 178.915 11.9922 185.413C18.3496 191.91 26.9629 195.575 35.957 195.575C66.0449 195.575 114.316 195.575 144.404 195.575C153.389 195.575 162.012 191.91 168.369 185.413C174.717 178.915 178.291 170.094 178.291 160.904C178.291 158.681 178.291 121.697 178.291 119.295C178.291 115.46 175.264 112.366 171.514 112.366C167.773 112.366 164.736 115.46 164.736 119.295C164.736 121.697 164.736 158.681 164.736 160.904C164.736 166.41 162.598 171.706 158.779 175.611C154.971 179.506 149.795 181.698 144.404 181.698C114.316 181.698 66.0449 181.698 35.957 181.698C30.5664 181.698 25.3906 179.506 21.582 175.611C17.7637 171.706 15.625 166.41 15.625 160.904C15.625 130.117 15.625 80.739 15.625 49.9627C15.625 44.4462 17.7637 39.1499 21.582 35.2553C25.3906 31.3507 30.5664 29.1581 35.957 29.1581C66.0449 29.1581 114.316 29.1581 144.404 29.1581C149.795 29.1581 154.971 31.3507 158.779 35.2553C162.598 39.1499 164.736 44.4462 164.736 49.9627C164.736 72.5794 164.736 63.6188 164.736 91.5618C164.736 95.3963 167.773 98.5 171.514 98.5C175.264 98.5 178.291 95.3963 178.291 91.5618Z" fill="#1C2340"/>
</g>
<mask id="mask1_2_168" style="mask-type:luminance" maskUnits="userSpaceOnUse" x="2" y="13" width="177" height="73">
<path d="M2.05078 13.9202H178.301V85.6849H2.05078V13.9202Z" fill="white"/>
</mask>
<g mask="url(#mask1_2_168)">
<path fill-rule="evenodd" clip-rule="evenodd" d="M178.291 49.9627C178.291 40.7618 174.717 31.9514 168.369 25.4438C162.012 18.9461 153.389 15.2918 144.404 15.2918C114.316 15.2918 66.0449 15.2918 35.957 15.2918C26.9629 15.2918 18.3496 18.9461 11.9922 25.4438C5.64453 31.9514 2.07031 40.7618 2.07031 49.9627C2.07031 63.8291 2.07031 77.6954 2.07031 77.6954C2.07031 81.53 5.09765 84.6236 8.84765 84.6236H171.514C175.264 84.6236 178.291 81.53 178.291 77.6954C178.291 77.6954 178.291 63.8291 178.291 49.9627ZM164.736 70.7573V49.9627C164.736 44.4462 162.598 39.1499 158.779 35.2553C154.971 31.3507 149.795 29.1581 144.404 29.1581C114.316 29.1581 66.0449 29.1581 35.957 29.1581C30.5664 29.1581 25.3906 31.3507 21.582 35.2553C17.7637 39.1499 15.625 44.4462 15.625 49.9627V70.7573H164.736Z" fill="#1C2340"/>
</g>
<path fill-rule="evenodd" clip-rule="evenodd" d="M49.5117 56.8909H130.85C134.6 56.8909 137.627 53.7872 137.627 49.9627C137.627 46.1282 134.6 43.0245 130.85 43.0245H49.5117C45.7617 43.0245 42.7343 46.1282 42.7343 49.9627C42.7343 53.7872 45.7617 56.8909 49.5117 56.8909Z" fill="#1C2340"/>
<mask id="mask2_2_168" style="mask-type:luminance" maskUnits="userSpaceOnUse" x="42" y="1" width="16" height="36">
<path d="M42.4999 1.42542H57.4999V36.9874H42.4999V1.42542Z" fill="white"/>
</mask>
<g mask="url(#mask2_2_168)">
<path fill-rule="evenodd" clip-rule="evenodd" d="M56.289 29.1581V8.35359C56.289 4.51907 53.2617 1.42542 49.5117 1.42542C45.7617 1.42542 42.7343 4.51907 42.7343 8.35359V29.1581C42.7343 32.9927 45.7617 36.0863 49.5117 36.0863C53.2617 36.0863 56.289 32.9927 56.289 29.1581Z" fill="#1C2340"/>
</g>
<mask id="mask3_2_168" style="mask-type:luminance" maskUnits="userSpaceOnUse" x="122" y="1" width="19" height="36">
<path d="M122.5 1.42542H140V36.9874H122.5V1.42542Z" fill="white"/>
</mask>
<g mask="url(#mask3_2_168)">
<path fill-rule="evenodd" clip-rule="evenodd" d="M137.627 29.1581V8.35359C137.627 4.51907 134.6 1.42542 130.85 1.42542C127.1 1.42542 124.072 4.51907 124.072 8.35359V29.1581C124.072 32.9927 127.1 36.0863 130.85 36.0863C134.6 36.0863 137.627 32.9927 137.627 29.1581Z" fill="#1C2340"/>
</g>
<path fill-rule="evenodd" clip-rule="evenodd" d="M49.5117 137.226L71.8359 114.399C74.4824 111.686 78.7695 111.686 81.416 114.399C84.0624 117.102 84.0624 121.487 81.416 124.2L54.3066 151.933C51.6601 154.646 47.3632 154.646 44.7167 151.933L31.162 138.067C28.5156 135.363 28.5156 130.968 31.162 128.265C33.8085 125.552 38.0956 125.552 40.7519 128.265L49.5117 137.226Z" fill="#1C2340"/>
<path fill-rule="evenodd" clip-rule="evenodd" d="M103.74 140.099H144.404C148.154 140.099 151.182 136.995 151.182 133.161C151.182 129.336 148.154 126.233 144.404 126.233H103.74C99.9902 126.233 96.9628 129.336 96.9628 133.161C96.9628 136.995 99.9902 140.099 103.74 140.099Z" fill="#1C2340"/>
<mask id="mask4_2_168" style="mask-type:luminance" maskUnits="userSpaceOnUse" x="20" y="26" width="1" height="2">
<path d="M19.9999 26.9456H20.8691V27.6664H19.9999V26.9456Z" fill="white"/>
</mask>
<g mask="url(#mask4_2_168)">
<mask id="mask5_2_168" style="mask-type:luminance" maskUnits="userSpaceOnUse" x="20" y="26" width="1" height="2">
<path d="M20.8105 27.3761C19.121 28.147 20.6249 26.9956 20.6249 26.9956Z" fill="white"/>
</mask>
<g mask="url(#mask5_2_168)">
<path d="M11.621 19.3065H28.5156V36.0263H11.621V19.3065Z" fill="#1C2340"/>
</g>
</g>
</svg>
