<svg width="35" height="38" viewBox="0 0 35 38" fill="none" xmlns="http://www.w3.org/2000/svg">
<mask id="mask0_100_184" style="mask-type:luminance" maskUnits="userSpaceOnUse" x="0" y="0" width="35" height="38">
<path d="M0.799377 0.357422H34.4489V37.6537H0.799377V0.357422Z" fill="white"/>
</mask>
<g mask="url(#mask0_100_184)">
<path d="M17.6241 0.366699C12.0469 0.366699 7.52854 4.91695 7.52854 10.5338C7.52854 17.7962 17.6241 29.1746 17.6241 29.1746C17.6241 29.1746 27.7179 17.7962 27.7179 10.5338C27.7179 4.91695 23.1995 0.366699 17.6241 0.366699ZM17.6241 6.90345C19.6159 6.90345 21.2279 8.5271 21.2279 10.5338C21.2279 12.5386 19.614 14.1641 17.6241 14.1641C15.6324 14.1641 14.0186 12.5404 14.0186 10.5338C14.0186 8.5271 15.6306 6.90345 17.6241 6.90345ZM10.0187 24.8277C4.55281 25.9474 0.799377 28.229 0.799377 30.8679C0.799377 34.6118 8.33181 37.6465 17.6241 37.6465C26.9164 37.6465 34.4489 34.6118 34.4489 30.8679C34.4489 28.229 30.6936 25.9493 25.2277 24.8277C24.4665 25.9493 23.7216 26.9755 23.0352 27.8735C27.6321 28.5753 30.354 30.0414 30.9985 30.866C30.1313 31.9729 25.5235 34.2544 17.6259 34.2544L17.6241 34.2618L17.6205 34.2581C9.72292 34.2581 5.11692 31.9784 4.24976 30.8679C4.8942 30.0432 7.61252 28.5735 12.2112 27.8735C11.5248 26.9737 10.7799 25.9474 10.0187 24.8277Z" fill="#027FAB"/>
</g>
</svg>
